<?xml version="1.0" standalone="no"?>
<!DOCTYPE svg PUBLIC "-//W3C//DTD SVG 20010904//EN"
 "http://www.w3.org/TR/2001/REC-SVG-20010904/DTD/svg10.dtd">
<svg version="1.0" xmlns="http://www.w3.org/2000/svg"
 width="810pt" height="670pt" viewBox="0 0 1920.000000 1592.000000"
 preserveAspectRatio="xMidYMid meet">
<g transform="translate(0.000000,1592.000000) scale(0.100000,-0.100000)"
fill="#000000" stroke="none">
<path d="M8150 15676 c0 -25 27 -59 59 -75 36 -19 41 -26 51 -77 11 -51 19
-63 91 -132 43 -43 79 -83 79 -90 0 -14 -97 -17 -118 -3 -12 7 -12 12 0 30 12
21 10 25 -32 61 -25 22 -50 40 -56 40 -16 0 -30 -20 -37 -51 -12 -48 -104 -74
-250 -70 -97 3 -99 3 -88 -17 6 -12 16 -24 21 -27 15 -9 12 -58 -5 -81 -8 -10
-15 -29 -15 -41 0 -13 -9 -50 -21 -83 -18 -52 -19 -65 -8 -97 14 -44 112 -167
163 -207 62 -47 64 -62 18 -110 -35 -35 -41 -48 -44 -91 -3 -49 -4 -50 -35
-50 -37 0 -58 -18 -67 -57 -5 -22 -1 -30 24 -45 32 -19 39 -43 16 -62 -8 -7
-18 -25 -21 -41 -4 -17 -15 -32 -28 -36 -11 -4 -66 -50 -121 -103 -78 -74
-102 -92 -104 -78 -8 39 11 69 88 143 44 43 80 83 80 90 0 22 -22 63 -36 68
-8 3 -32 -1 -55 -9 -79 -28 -93 -13 -29 29 23 15 48 42 56 60 10 20 36 45 70
65 38 22 56 40 60 59 3 15 10 43 15 62 10 38 11 36 -68 128 -28 34 -54 75 -58
91 -4 21 -21 41 -51 62 -24 16 -44 36 -44 44 0 8 10 34 21 59 l22 44 -30 88
-29 89 -43 3 c-50 4 -125 -35 -143 -73 -9 -21 -16 -23 -57 -19 l-46 5 -33 -69
c-32 -66 -33 -70 -19 -104 11 -27 22 -37 47 -42 55 -10 67 -7 74 18 6 24 37
42 55 32 4 -3 23 -56 41 -117 l33 -112 -29 -90 c-17 -53 -36 -95 -48 -103 -30
-21 -43 -2 -28 39 7 18 12 61 12 95 l0 61 -56 48 c-30 26 -70 52 -87 56 -18 5
-45 20 -60 35 -22 21 -27 34 -26 67 2 56 -15 93 -47 101 -45 11 -78 -7 -88
-48 -12 -50 7 -95 51 -116 31 -15 33 -19 33 -65 0 -40 -7 -58 -37 -103 -21
-29 -43 -54 -49 -54 -25 0 -44 40 -54 111 -5 40 -13 87 -16 102 l-6 29 -22
-21 c-23 -22 -61 -27 -84 -12 -11 7 -11 14 1 44 14 32 14 37 -1 49 -38 31 -71
39 -107 24 -37 -16 -43 -30 -47 -111 -3 -49 -4 -50 -38 -53 -19 -2 -45 -12
-56 -23 -12 -11 -41 -26 -65 -33 -37 -11 -47 -21 -78 -74 -20 -34 -41 -61 -48
-62 -6 0 -22 19 -35 42 -28 51 -41 55 -189 57 l-106 1 -30 -82 c-27 -74 -29
-86 -17 -105 13 -20 11 -28 -13 -77 -14 -30 -37 -59 -50 -65 -23 -11 -27 -20
-23 -54 2 -24 -28 -57 -51 -57 -11 0 -34 -24 -59 -60 -38 -56 -43 -60 -81 -60
-33 0 -41 -4 -51 -26 -11 -23 -16 -25 -47 -19 -20 4 -57 22 -82 41 -43 32 -47
33 -61 16 -9 -9 -23 -32 -33 -51 -14 -27 -15 -38 -5 -62 12 -28 15 -29 77 -29
43 0 80 7 113 21 63 27 91 23 102 -16 5 -18 26 -43 53 -64 61 -45 61 -74 3
-90 -71 -18 -108 -46 -108 -81 0 -28 6 -34 55 -55 52 -24 56 -24 98 -8 53 20
94 12 109 -22 6 -14 19 -27 30 -30 33 -11 16 -65 -21 -65 -8 0 -32 12 -52 26
-49 34 -79 21 -79 -34 0 -45 -6 -55 -48 -76 -24 -12 -54 -16 -112 -15 -69 2
-86 -2 -144 -29 -36 -17 -66 -35 -66 -40 0 -5 32 -30 70 -56 39 -27 70 -54 70
-61 0 -16 -27 -45 -41 -45 -5 0 -15 -11 -21 -25 -13 -30 -38 -32 -120 -10 -51
13 -62 12 -138 -6 -72 -17 -90 -26 -144 -73 -33 -29 -73 -56 -88 -60 -28 -6
-30 -11 -43 -89 -4 -26 -13 -40 -28 -46 -12 -5 -32 -20 -45 -33 -21 -24 -22
-27 -10 -88 l13 -62 105 -42 c95 -37 105 -44 113 -72 11 -36 33 -44 125 -44
38 0 61 -5 74 -17 17 -15 26 -16 76 -5 31 7 80 23 109 38 29 14 57 23 62 20 5
-4 12 -23 16 -44 10 -63 15 -64 88 -11 84 61 109 60 138 -9 l20 -46 25 41 c27
46 131 117 162 111 27 -5 26 -51 -3 -108 -15 -29 -24 -54 -21 -57 9 -9 118 47
164 85 61 51 169 94 208 83 23 -6 31 -16 41 -51 9 -32 10 -47 1 -57 -6 -7 -8
-16 -5 -20 4 -3 56 -10 117 -15 100 -8 114 -7 155 11 30 13 56 18 75 14 46 -9
39 -34 -30 -128 -60 -80 -58 -89 14 -119 52 -21 80 -26 183 -28 l122 -3 6 25
c3 14 44 61 90 105 45 44 85 86 87 93 2 7 26 16 53 20 42 6 51 11 53 30 3 22
1 23 -46 16 -45 -6 -54 -3 -95 25 -43 30 -47 30 -101 20 l-55 -10 -45 43 c-24
24 -58 54 -75 68 -27 21 -33 35 -41 86 -4 34 -13 71 -19 83 -10 18 -8 22 14
31 15 6 33 10 40 10 8 0 29 17 47 37 57 65 90 93 107 93 9 0 46 -20 81 -45 35
-25 75 -45 88 -45 39 0 175 75 237 131 18 16 26 17 57 7 24 -7 55 -8 94 -2
l58 9 13 75 c12 73 13 76 71 130 32 30 75 82 95 115 34 58 36 64 47 215 15
201 13 194 58 214 l39 18 6 128 5 129 49 65 c45 61 57 70 191 141 l143 77 68
91 c38 51 86 109 107 129 57 54 223 161 290 188 71 28 179 96 216 136 l26 29
-17 45 c-16 44 -18 45 -77 56 -44 8 -74 21 -109 47 -35 27 -58 37 -85 37 -26
0 -67 16 -138 56 l-102 55 -21 69 c-16 53 -28 75 -54 94 -52 40 -336 136 -401
136 -30 0 -54 -2 -54 -4z"/></g>
</svg>
